# xmcd CD database file
#
# Track frame offsets:
#	150
#	96055
#	196118
#	217944
#
# Disc length: 3737 seconds
#
# Revision: 0
# Processed by: cddbd v1.5.1PL0 Copyright (c) Steve Scherf et al.
# Submitted via: CDex 1.51
#
DISCID=2a0e9704
DTITLE=Charles Mingus - Concertgebouw Amsterdam, Vol. 1
DYEAR=1964
DGENRE=Jazz
TTITLE0=Ow (aka Dedicated To A Genius, aka Parkeriana)
TTITLE1=So Long Eric
TTITLE2=A.T.F.W.Y.O.U.U.S.A.
TTITLE3=Orange Was The Color Of Her Dress, Then Blue Silk
EXTD=YEAR: 1964
EXTT0=
EXTT1=
EXTT2=
EXTT3=
PLAYORDER=
